<svg width="225" height="36" viewBox="0 0 225 36" fill="none" xmlns="http://www.w3.org/2000/svg">
<path d="M0 0H225V36H0V0Z" fill="white"/>
<path d="M5.44602 23L0.451705 5.54545H4.48295L7.37216 17.6733H7.51705L10.7045 5.54545H14.1562L17.3352 17.6989H17.4886L20.3778 5.54545H24.4091L19.4148 23H15.8182L12.4943 11.5881H12.358L9.04261 23H5.44602Z" fill="#61AEFF"/>
<path d="M30.8757 23.2557C29.5291 23.2557 28.37 22.983 27.3984 22.4375C26.4325 21.8864 25.6882 21.108 25.1655 20.1023C24.6428 19.0909 24.3814 17.8949 24.3814 16.5142C24.3814 15.1676 24.6428 13.9858 25.1655 12.9688C25.6882 11.9517 26.424 11.1591 27.3729 10.5909C28.3274 10.0227 29.4467 9.73864 30.7308 9.73864C31.5945 9.73864 32.3984 9.87784 33.1428 10.1562C33.8928 10.429 34.5462 10.8409 35.103 11.392C35.6655 11.9432 36.103 12.6364 36.4155 13.4716C36.728 14.3011 36.8842 15.2727 36.8842 16.3864V17.3835H25.8303V15.1335H33.4666C33.4666 14.6108 33.353 14.1477 33.1257 13.7443C32.8984 13.3409 32.5831 13.0256 32.1797 12.7983C31.782 12.5653 31.3189 12.4489 30.7905 12.4489C30.2393 12.4489 29.7507 12.5767 29.3246 12.8324C28.9041 13.0824 28.5746 13.4205 28.3359 13.8466C28.0973 14.267 27.9751 14.7358 27.9695 15.2528V17.392C27.9695 18.0398 28.0888 18.5994 28.3274 19.071C28.5717 19.5426 28.9155 19.9063 29.3587 20.1619C29.8018 20.4176 30.3274 20.5455 30.9354 20.5455C31.3388 20.5455 31.7081 20.4886 32.0433 20.375C32.3786 20.2614 32.6655 20.0909 32.9041 19.8636C33.1428 19.6364 33.3246 19.358 33.4496 19.0284L36.8075 19.25C36.6371 20.0568 36.2876 20.7614 35.7592 21.3636C35.2365 21.9602 34.5604 22.4261 33.7308 22.7614C32.907 23.0909 31.9553 23.2557 30.8757 23.2557Z" fill="#61AEFF"/>
<path d="M42.9865 23.2472C42.1513 23.2472 41.407 23.1023 40.7536 22.8125C40.1001 22.517 39.5831 22.0824 39.2024 21.5085C38.8274 20.929 38.6399 20.2074 38.6399 19.3438C38.6399 18.6165 38.7734 18.0057 39.0405 17.5114C39.3075 17.017 39.6712 16.6193 40.1314 16.3182C40.5916 16.017 41.1143 15.7898 41.6996 15.6364C42.2905 15.483 42.9098 15.375 43.5575 15.3125C44.3189 15.233 44.9325 15.1591 45.3984 15.0909C45.8643 15.017 46.2024 14.9091 46.4126 14.767C46.6229 14.625 46.728 14.4148 46.728 14.1364V14.0852C46.728 13.5455 46.5575 13.1278 46.2166 12.8324C45.8814 12.5369 45.4041 12.3892 44.7848 12.3892C44.1314 12.3892 43.6115 12.5341 43.2251 12.8239C42.8388 13.108 42.5831 13.4659 42.4581 13.8977L39.1001 13.625C39.2706 12.8295 39.6058 12.142 40.1058 11.5625C40.6058 10.9773 41.2507 10.5284 42.0405 10.2159C42.8359 9.89773 43.7564 9.73864 44.8018 9.73864C45.5291 9.73864 46.2251 9.82386 46.8899 9.99432C47.5604 10.1648 48.1541 10.429 48.6712 10.7869C49.1939 11.1449 49.6058 11.6051 49.907 12.1676C50.2081 12.7244 50.3587 13.392 50.3587 14.1705V23H46.9155V21.1847H46.8132C46.603 21.5938 46.3217 21.9545 45.9695 22.267C45.6172 22.5739 45.1939 22.8153 44.6996 22.9915C44.2053 23.1619 43.6342 23.2472 42.9865 23.2472ZM44.0263 20.7415C44.5604 20.7415 45.032 20.6364 45.4411 20.4261C45.8501 20.2102 46.1712 19.9205 46.4041 19.5568C46.6371 19.1932 46.7536 18.7812 46.7536 18.321V16.9318C46.6399 17.0057 46.4837 17.0739 46.2848 17.1364C46.0916 17.1932 45.8729 17.2472 45.6286 17.2983C45.3842 17.3438 45.1399 17.3864 44.8956 17.4261C44.6513 17.4602 44.4297 17.4915 44.2308 17.5199C43.8047 17.5824 43.4325 17.6818 43.1143 17.8182C42.7962 17.9545 42.549 18.1392 42.3729 18.3722C42.1967 18.5994 42.1087 18.8835 42.1087 19.2244C42.1087 19.7188 42.2876 20.0966 42.6456 20.358C43.0092 20.6136 43.4695 20.7415 44.0263 20.7415Z" fill="#61AEFF"/>
<path d="M53.2436 23V5.54545H60.13C61.4482 5.54545 62.5732 5.78125 63.505 6.25284C64.4425 6.71875 65.1555 7.38068 65.6442 8.23864C66.1385 9.09091 66.3857 10.0937 66.3857 11.2472C66.3857 12.4062 66.1357 13.4034 65.6357 14.2386C65.1357 15.0682 64.4112 15.7045 63.4624 16.1477C62.5192 16.5909 61.3771 16.8125 60.0362 16.8125H55.4254V13.8466H59.4396C60.1442 13.8466 60.7294 13.75 61.1953 13.5568C61.6612 13.3636 62.0078 13.0739 62.2351 12.6875C62.468 12.3011 62.5845 11.821 62.5845 11.2472C62.5845 10.6676 62.468 10.179 62.2351 9.78125C62.0078 9.38352 61.6584 9.08239 61.1868 8.87784C60.7209 8.66761 60.1328 8.5625 59.4226 8.5625H56.9339V23H53.2436ZM62.6697 15.0568L67.0078 23H62.9339L58.6896 15.0568H62.6697Z" fill="#61AEFF"/>
<path d="M75.8885 9.90909V12.6364H68.005V9.90909H75.8885ZM69.7947 6.77273H73.4254V18.9773C73.4254 19.3125 73.4766 19.5739 73.5788 19.7614C73.6811 19.9432 73.8232 20.071 74.005 20.1449C74.1925 20.2187 74.4084 20.2557 74.6527 20.2557C74.8232 20.2557 74.9936 20.2415 75.1641 20.2131C75.3345 20.179 75.4652 20.1534 75.5561 20.1364L76.1271 22.8381C75.9453 22.8949 75.6896 22.9602 75.3601 23.0341C75.0305 23.1136 74.63 23.1619 74.1584 23.179C73.2834 23.2131 72.5163 23.0966 71.8572 22.8295C71.2038 22.5625 70.6953 22.1477 70.3317 21.5852C69.968 21.0227 69.7891 20.3125 69.7947 19.4545V6.77273Z" fill="#61AEFF"/>
<path d="M82.1655 15.4318V23H78.5348V5.54545H82.0632V12.2188H82.2166C82.5121 11.446 82.9893 10.8409 83.6484 10.4034C84.3075 9.96023 85.1342 9.73864 86.1286 9.73864C87.0376 9.73864 87.8303 9.9375 88.5064 10.3352C89.1882 10.7273 89.7166 11.2926 90.0916 12.0312C90.4723 12.7642 90.6598 13.642 90.6541 14.6648V23H87.0234V15.3125C87.0291 14.5057 86.8246 13.8778 86.4098 13.429C86.0007 12.9801 85.4268 12.7557 84.6882 12.7557C84.1939 12.7557 83.7564 12.8608 83.3757 13.071C83.0007 13.2812 82.7053 13.5881 82.4893 13.9915C82.2791 14.3892 82.1712 14.8693 82.1655 15.4318Z" fill="#61AEFF"/>
<path d="M99.4773 23.2557C98.1307 23.2557 96.9716 22.983 96 22.4375C95.0341 21.8864 94.2898 21.108 93.767 20.1023C93.2443 19.0909 92.983 17.8949 92.983 16.5142C92.983 15.1676 93.2443 13.9858 93.767 12.9688C94.2898 11.9517 95.0256 11.1591 95.9744 10.5909C96.929 10.0227 98.0483 9.73864 99.3324 9.73864C100.196 9.73864 101 9.87784 101.744 10.1562C102.494 10.429 103.148 10.8409 103.705 11.392C104.267 11.9432 104.705 12.6364 105.017 13.4716C105.33 14.3011 105.486 15.2727 105.486 16.3864V17.3835H94.4318V15.1335H102.068C102.068 14.6108 101.955 14.1477 101.727 13.7443C101.5 13.3409 101.185 13.0256 100.781 12.7983C100.384 12.5653 99.9205 12.4489 99.392 12.4489C98.8409 12.4489 98.3523 12.5767 97.9261 12.8324C97.5057 13.0824 97.1761 13.4205 96.9375 13.8466C96.6989 14.267 96.5767 14.7358 96.571 15.2528V17.392C96.571 18.0398 96.6903 18.5994 96.929 19.071C97.1733 19.5426 97.517 19.9063 97.9602 20.1619C98.4034 20.4176 98.929 20.5455 99.5369 20.5455C99.9403 20.5455 100.31 20.4886 100.645 20.375C100.98 20.2614 101.267 20.0909 101.506 19.8636C101.744 19.6364 101.926 19.358 102.051 19.0284L105.409 19.25C105.239 20.0568 104.889 20.7614 104.361 21.3636C103.838 21.9602 103.162 22.4261 102.332 22.7614C101.509 23.0909 100.557 23.2557 99.4773 23.2557Z" fill="#61AEFF"/>
<path d="M107.855 23V9.90909H111.375V12.1932H111.511C111.75 11.3807 112.151 10.767 112.713 10.3523C113.276 9.93182 113.923 9.72159 114.656 9.72159C114.838 9.72159 115.034 9.73295 115.244 9.75568C115.455 9.77841 115.639 9.80966 115.798 9.84943V13.071C115.628 13.0199 115.392 12.9744 115.091 12.9347C114.79 12.8949 114.514 12.875 114.264 12.875C113.73 12.875 113.253 12.9915 112.832 13.2244C112.418 13.4517 112.088 13.7699 111.844 14.179C111.605 14.5881 111.486 15.0597 111.486 15.5938V23H107.855Z" fill="#61AEFF"/>
<path d="M130.27 9.90909V12.6364H122.19V9.90909H130.27ZM124.04 23V8.96307C124.04 8.0142 124.224 7.22727 124.594 6.60227C124.969 5.97727 125.48 5.50852 126.128 5.19602C126.776 4.88352 127.511 4.72727 128.335 4.72727C128.892 4.72727 129.401 4.76989 129.861 4.85511C130.327 4.94034 130.673 5.01705 130.901 5.08523L130.253 7.8125C130.111 7.76705 129.935 7.72443 129.724 7.68466C129.52 7.64489 129.31 7.625 129.094 7.625C128.56 7.625 128.187 7.75 127.977 8C127.767 8.24432 127.662 8.58807 127.662 9.03125V23H124.04Z" fill="#61AEFF"/>
<path d="M164.299 23V9.90909H167.819V12.1932H167.956C168.194 11.3807 168.595 10.767 169.157 10.3523C169.72 9.93182 170.368 9.72159 171.101 9.72159C171.282 9.72159 171.478 9.73295 171.689 9.75568C171.899 9.77841 172.084 9.80966 172.243 9.84943V13.071C172.072 13.0199 171.836 12.9744 171.535 12.9347C171.234 12.8949 170.959 12.875 170.709 12.875C170.174 12.875 169.697 12.9915 169.277 13.2244C168.862 13.4517 168.532 13.7699 168.288 14.179C168.049 14.5881 167.93 15.0597 167.93 15.5938V23H164.299Z" fill="#61AEFF"/>
<path d="M179.425 23.2557C178.084 23.2557 176.931 22.9716 175.965 22.4034C175.005 21.8295 174.266 21.0341 173.749 20.017C173.238 19 172.982 17.8295 172.982 16.5057C172.982 15.1648 173.241 13.9886 173.758 12.9773C174.28 11.9602 175.022 11.1676 175.982 10.5994C176.942 10.0256 178.084 9.73864 179.408 9.73864C180.55 9.73864 181.55 9.94602 182.408 10.3608C183.266 10.7756 183.945 11.358 184.445 12.108C184.945 12.858 185.221 13.7386 185.272 14.75H181.846C181.749 14.0966 181.493 13.571 181.079 13.1733C180.669 12.7699 180.133 12.5682 179.468 12.5682C178.905 12.5682 178.414 12.7216 177.993 13.0284C177.579 13.3295 177.255 13.7699 177.022 14.3494C176.789 14.929 176.672 15.6307 176.672 16.4545C176.672 17.2898 176.786 18 177.013 18.5852C177.246 19.1705 177.573 19.6165 177.993 19.9233C178.414 20.2301 178.905 20.3835 179.468 20.3835C179.883 20.3835 180.255 20.2983 180.584 20.1278C180.919 19.9574 181.195 19.7102 181.411 19.3864C181.633 19.0568 181.777 18.6619 181.846 18.2017H185.272C185.215 19.2017 184.942 20.0824 184.454 20.8438C183.971 21.5994 183.303 22.1903 182.451 22.6165C181.598 23.0426 180.59 23.2557 179.425 23.2557Z" fill="#61AEFF"/>
<path d="M191.329 23.2472C190.494 23.2472 189.75 23.1023 189.096 22.8125C188.443 22.517 187.926 22.0824 187.545 21.5085C187.17 20.929 186.983 20.2074 186.983 19.3438C186.983 18.6165 187.116 18.0057 187.383 17.5114C187.65 17.017 188.014 16.6193 188.474 16.3182C188.934 16.017 189.457 15.7898 190.042 15.6364C190.633 15.483 191.253 15.375 191.9 15.3125C192.662 15.233 193.275 15.1591 193.741 15.0909C194.207 15.017 194.545 14.9091 194.755 14.767C194.966 14.625 195.071 14.4148 195.071 14.1364V14.0852C195.071 13.5455 194.9 13.1278 194.559 12.8324C194.224 12.5369 193.747 12.3892 193.128 12.3892C192.474 12.3892 191.954 12.5341 191.568 12.8239C191.182 13.108 190.926 13.4659 190.801 13.8977L187.443 13.625C187.613 12.8295 187.949 12.142 188.449 11.5625C188.949 10.9773 189.593 10.5284 190.383 10.2159C191.179 9.89773 192.099 9.73864 193.145 9.73864C193.872 9.73864 194.568 9.82386 195.233 9.99432C195.903 10.1648 196.497 10.429 197.014 10.7869C197.537 11.1449 197.949 11.6051 198.25 12.1676C198.551 12.7244 198.701 13.392 198.701 14.1705V23H195.258V21.1847H195.156C194.946 21.5938 194.665 21.9545 194.312 22.267C193.96 22.5739 193.537 22.8153 193.042 22.9915C192.548 23.1619 191.977 23.2472 191.329 23.2472ZM192.369 20.7415C192.903 20.7415 193.375 20.6364 193.784 20.4261C194.193 20.2102 194.514 19.9205 194.747 19.5568C194.98 19.1932 195.096 18.7812 195.096 18.321V16.9318C194.983 17.0057 194.826 17.0739 194.628 17.1364C194.434 17.1932 194.216 17.2472 193.971 17.2983C193.727 17.3438 193.483 17.3864 193.238 17.4261C192.994 17.4602 192.772 17.4915 192.574 17.5199C192.147 17.5824 191.775 17.6818 191.457 17.8182C191.139 17.9545 190.892 18.1392 190.716 18.3722C190.54 18.5994 190.451 18.8835 190.451 19.2244C190.451 19.7188 190.63 20.0966 190.988 20.358C191.352 20.6136 191.812 20.7415 192.369 20.7415Z" fill="#61AEFF"/>
<path d="M212.41 13.642L209.086 13.8466C209.03 13.5625 208.907 13.3068 208.72 13.0795C208.532 12.8466 208.285 12.6619 207.978 12.5256C207.677 12.3835 207.316 12.3125 206.896 12.3125C206.334 12.3125 205.859 12.4318 205.473 12.6705C205.086 12.9034 204.893 13.2159 204.893 13.608C204.893 13.9205 205.018 14.1847 205.268 14.4006C205.518 14.6165 205.947 14.7898 206.555 14.9205L208.924 15.3977C210.197 15.6591 211.146 16.0795 211.771 16.6591C212.396 17.2386 212.709 18 212.709 18.9432C212.709 19.8011 212.456 20.554 211.95 21.2017C211.45 21.8494 210.763 22.3551 209.888 22.7188C209.018 23.0767 208.015 23.2557 206.879 23.2557C205.146 23.2557 203.765 22.8949 202.737 22.1733C201.714 21.446 201.115 20.4574 200.939 19.2074L204.51 19.0199C204.618 19.5483 204.879 19.9517 205.294 20.2301C205.709 20.5028 206.24 20.6392 206.888 20.6392C207.524 20.6392 208.035 20.517 208.422 20.2727C208.814 20.0227 209.013 19.7017 209.018 19.3097C209.013 18.9801 208.873 18.7102 208.601 18.5C208.328 18.2841 207.907 18.1193 207.339 18.0057L205.072 17.554C203.794 17.2983 202.842 16.8551 202.217 16.2244C201.598 15.5938 201.288 14.7898 201.288 13.8125C201.288 12.9716 201.515 12.2472 201.97 11.6392C202.43 11.0312 203.075 10.5625 203.905 10.233C204.74 9.90341 205.717 9.73864 206.836 9.73864C208.49 9.73864 209.791 10.0881 210.74 10.7869C211.694 11.4858 212.251 12.4375 212.41 13.642Z" fill="#61AEFF"/>
<path d="M221.958 9.90909V12.6364H214.074V9.90909H221.958ZM215.864 6.77273H219.495V18.9773C219.495 19.3125 219.546 19.5739 219.648 19.7614C219.75 19.9432 219.892 20.071 220.074 20.1449C220.262 20.2187 220.478 20.2557 220.722 20.2557C220.892 20.2557 221.063 20.2415 221.233 20.2131C221.404 20.179 221.535 20.1534 221.625 20.1364L222.196 22.8381C222.015 22.8949 221.759 22.9602 221.429 23.0341C221.1 23.1136 220.699 23.1619 220.228 23.179C219.353 23.2131 218.586 23.0966 217.927 22.8295C217.273 22.5625 216.765 22.1477 216.401 21.5852C216.037 21.0227 215.858 20.3125 215.864 19.4545V6.77273Z" fill="#61AEFF"/>
<path fill-rule="evenodd" clip-rule="evenodd" d="M147.61 17.3828L149.275 18.4922L146.311 22.9375H151.398L145.92 30.523L144.299 29.352L147.487 24.9375H142.574L147.61 17.3828Z" fill="url(#paint0_linear_136_1288)"/>
<path fill-rule="evenodd" clip-rule="evenodd" d="M158.421 14.1484C159.666 12.9643 160.443 11.2915 160.443 9.4375C160.443 5.84765 157.532 2.9375 153.943 2.9375C151.697 2.9375 149.717 4.07632 148.549 5.80795C149.06 6.2911 149.523 6.825 149.928 7.40156C150.671 5.93934 152.19 4.9375 153.943 4.9375C156.428 4.9375 158.443 6.95222 158.443 9.4375C158.443 10.5435 158.043 11.5563 157.382 12.3399C157.819 12.8781 158.172 13.4877 158.421 14.1484Z" fill="url(#paint1_linear_136_1288)"/>
<path fill-rule="evenodd" clip-rule="evenodd" d="M140.443 24.6025C135.845 23.3973 132.443 19.0794 132.443 13.9375C132.443 7.86237 137.192 2.9375 143.051 2.9375C147.911 2.9375 152.009 6.32726 153.264 10.9514C153.405 10.9422 153.548 10.9375 153.692 10.9375C157.42 10.9375 160.443 14.0715 160.443 17.9375C160.443 21.8035 157.42 24.9375 153.692 24.9375C153.608 24.9375 153.525 24.9359 153.443 24.9328V22.9375H153.745C156.278 22.9074 158.443 20.748 158.443 17.9375C158.443 15.1071 156.248 12.9375 153.692 12.9375C152.97 12.9375 152.276 13.1107 151.653 13.423C151.622 12.8412 151.536 12.2742 151.402 11.7274L151.399 11.7286C150.452 7.78754 147.026 4.9375 143.051 4.9375C138.364 4.9375 134.443 8.89796 134.443 13.9375C134.443 18.0032 136.995 21.3666 140.443 22.5147V24.6025Z" fill="url(#paint2_linear_136_1288)"/>
<defs>
<linearGradient id="paint0_linear_136_1288" x1="112.5" y1="0" x2="112.5" y2="36" gradientUnits="userSpaceOnUse">
<stop stop-color="#F5BD52"/>
<stop offset="1" stop-color="#F5DA79"/>
</linearGradient>
<linearGradient id="paint1_linear_136_1288" x1="112.5" y1="0" x2="112.5" y2="36" gradientUnits="userSpaceOnUse">
<stop stop-color="#EFC977"/>
<stop offset="1" stop-color="#E07256"/>
</linearGradient>
<linearGradient id="paint2_linear_136_1288" x1="112.5" y1="0" x2="112.5" y2="36" gradientUnits="userSpaceOnUse">
<stop stop-color="#95B6F6"/>
<stop offset="1" stop-color="#5193DE"/>
</linearGradient>
</defs>
</svg>
